<?xml version="1.0" standalone="no"?>
<svg xmlns="http://www.w3.org/2000/svg" xmlns:xlink="http://www.w3.org/1999/xlink" width="799pt" height="310pt" viewBox="0.00 0.00 798.5 310.40">
<g id="graph0" class="graph" transform="translate(51.3949817984971,260.3131805248905) scale(0.7578582832552009)" data-name="">
<polygon fill="white" stroke="transparent" points="-4,4 -4,-306.4 794.5,-306.4 794.5,4 -4,4"/>
<!-- EXAMPLE&#45;8 -->
<g id="node1" class="node" pointer-events="visible" data-name="EXAMPLE-8" data-comment="EXAMPLE-8">

<g id="a_node1"><a xlink:href="" xlink:title="Click to open: EXAMPLE-8 - Concept">
<path fill="none" stroke="black" d="M252,-302.4C252,-302.4 12,-302.4 12,-302.4 6,-302.4 0,-296.4 0,-290.4 0,-290.4 0,-278.4 0,-278.4 0,-272.4 6,-266.4 12,-266.4 12,-266.4 252,-266.4 252,-266.4 258,-266.4 264,-272.4 264,-278.4 264,-278.4 264,-290.4 264,-290.4 264,-296.4 258,-302.4 252,-302.4"/>
<polygon fill="#00875a" stroke="transparent" points="10,-274.4 10,-294.4 62,-294.4 62,-274.4 10,-274.4"/>
<text text-anchor="start" x="11.89" y="-279.8" font-family="Arial" font-size="14.00" fill="#e3fcef">STORY</text>
<polygon fill="#f5f5f5" stroke="transparent" points="64,-274.4 64,-294.4 146,-294.4 146,-274.4 64,-274.4"/>
<text text-anchor="start" x="65.71" y="-279.8" font-family="Arial" font-size="14.00">EXAMPLE-8</text>
<polygon fill="#f5f5f5" stroke="transparent" points="148,-274.4 148,-294.4 204,-294.4 204,-274.4 148,-274.4"/>
<text text-anchor="start" x="149.93" y="-279.8" font-family="Arial" font-size="14.00">Concept</text>
<polygon fill="#c1c7d0" stroke="transparent" points="206,-274.4 206,-294.4 254,-294.4 254,-274.4 206,-274.4"/>
<text text-anchor="start" x="207.83" y="-279.8" font-family="Arial" font-size="14.00" fill="#42526e">TO DO</text>
</a>
</g>
</g>
<!-- EXAMPLE&#45;7 -->
<g id="node2" class="node" pointer-events="visible" data-name="EXAMPLE-7" data-comment="EXAMPLE-7">

<g id="a_node2"><a xlink:href="" xlink:title="Click to open: EXAMPLE-7 - Reciever">
<path fill="none" stroke="black" d="M247.5,-213.6C247.5,-213.6 16.5,-213.6 16.5,-213.6 10.5,-213.6 4.5,-207.6 4.5,-201.6 4.5,-201.6 4.5,-189.6 4.5,-189.6 4.5,-183.6 10.5,-177.6 16.5,-177.6 16.5,-177.6 247.5,-177.6 247.5,-177.6 253.5,-177.6 259.5,-183.6 259.5,-189.6 259.5,-189.6 259.5,-201.6 259.5,-201.6 259.5,-207.6 253.5,-213.6 247.5,-213.6"/>
<polygon fill="#2684ff" stroke="transparent" points="15,-185.6 15,-205.6 55,-205.6 55,-185.6 15,-185.6"/>
<text text-anchor="start" x="16.72" y="-191" font-family="Arial" font-size="14.00" fill="#deebff">TASK</text>
<polygon fill="#f5f5f5" stroke="transparent" points="57,-185.6 57,-205.6 139,-205.6 139,-185.6 57,-185.6"/>
<text text-anchor="start" x="58.71" y="-191" font-family="Arial" font-size="14.00">EXAMPLE-7</text>
<polygon fill="#f5f5f5" stroke="transparent" points="141,-185.6 141,-205.6 200,-205.6 200,-185.6 141,-185.6"/>
<text text-anchor="start" x="142.88" y="-191" font-family="Arial" font-size="14.00">Reciever</text>
<polygon fill="#c1c7d0" stroke="transparent" points="202,-185.6 202,-205.6 250,-205.6 250,-185.6 202,-185.6"/>
<text text-anchor="start" x="203.83" y="-191" font-family="Arial" font-size="14.00" fill="#42526e">TO DO</text>
</a>
</g>
</g>
<!-- EXAMPLE&#45;8&#45;&gt;EXAMPLE&#45;7 -->
<g id="edge1" class="edge" data-name="EXAMPLE-8-&gt;EXAMPLE-7" data-comment="EXAMPLE-8-&gt;EXAMPLE-7">

<path fill="none" stroke="black" d="M132,-266.25C132,-254.12 132,-237.62 132,-223.72"/>
<polygon fill="black" stroke="black" points="135.5,-223.71 132,-213.71 128.5,-223.71 135.5,-223.71"/>
<text text-anchor="middle" x="201.67" y="-235.8" font-family="Arial" font-size="14.00">should be done before</text>
</g>
<!-- EXAMPLE&#45;1 -->
<g id="node3" class="node" pointer-events="visible" data-name="EXAMPLE-1" data-comment="EXAMPLE-1">

<g id="a_node3"><a xlink:href="" xlink:title="Click to open: EXAMPLE-1 - Decoder">
<path fill="none" stroke="red" d="M425,-124.8C425,-124.8 175,-124.8 175,-124.8 169,-124.8 163,-118.8 163,-112.8 163,-112.8 163,-100.8 163,-100.8 163,-94.8 169,-88.8 175,-88.8 175,-88.8 425,-88.8 425,-88.8 431,-88.8 437,-94.8 437,-100.8 437,-100.8 437,-112.8 437,-112.8 437,-118.8 431,-124.8 425,-124.8"/>
<polygon fill="#2684ff" stroke="transparent" points="173,-96.8 173,-116.8 213,-116.8 213,-96.8 173,-96.8"/>
<text text-anchor="start" x="174.72" y="-102.2" font-family="Arial" font-size="14.00" fill="#deebff">TASK</text>
<polygon fill="#f5f5f5" stroke="transparent" points="215,-96.8 215,-116.8 297,-116.8 297,-96.8 215,-96.8"/>
<text text-anchor="start" x="216.71" y="-102.2" font-family="Arial" font-size="14.00">EXAMPLE-1</text>
<polygon fill="#f5f5f5" stroke="transparent" points="299,-96.8 299,-116.8 355,-116.8 355,-96.8 299,-96.8"/>
<text text-anchor="start" x="300.54" y="-102.2" font-family="Arial" font-size="14.00">Decoder</text>
<polygon fill="#c1c7d0" stroke="transparent" points="357,-96.8 357,-116.8 427,-116.8 427,-96.8 357,-96.8"/>
<text text-anchor="start" x="358.54" y="-102.2" font-family="Arial" font-size="14.00" fill="#42526e">BLOCKED</text>
</a>
</g>
</g>
<!-- EXAMPLE&#45;7&#45;&gt;EXAMPLE&#45;1 -->
<g id="edge2" class="edge" data-name="EXAMPLE-7-&gt;EXAMPLE-1" data-comment="EXAMPLE-7-&gt;EXAMPLE-1">

<path fill="none" stroke="black" d="M161.32,-177.47C179.4,-167.09 203.16,-153.78 224.66,-142.8 233.62,-138.22 243.29,-133.54 252.62,-129.15"/>
<polygon fill="black" stroke="black" points="254.21,-132.27 261.79,-124.88 251.25,-125.93 254.21,-132.27"/>
<text text-anchor="middle" x="294.67" y="-147" font-family="Arial" font-size="14.00">should be done before</text>
</g>
<!-- EXAMPLE&#45;2 -->
<g id="node7" class="node" pointer-events="visible" data-name="EXAMPLE-2" data-comment="EXAMPLE-2">

<g id="a_node7"><a xlink:href="" xlink:title="Click to open: EXAMPLE-2 - Visualization">
<path fill="none" stroke="black" d="M588,-36C588,-36 334,-36 334,-36 328,-36 322,-30 322,-24 322,-24 322,-12 322,-12 322,-6 328,0 334,0 334,0 588,0 588,0 594,0 600,-6 600,-12 600,-12 600,-24 600,-24 600,-30 594,-36 588,-36"/>
<polygon fill="#2684ff" stroke="transparent" points="332,-8 332,-28 372,-28 372,-8 332,-8"/>
<text text-anchor="start" x="333.72" y="-13.4" font-family="Arial" font-size="14.00" fill="#deebff">TASK</text>
<polygon fill="#f5f5f5" stroke="transparent" points="374,-8 374,-28 456,-28 456,-8 374,-8"/>
<text text-anchor="start" x="375.71" y="-13.4" font-family="Arial" font-size="14.00">EXAMPLE-2</text>
<polygon fill="#f5f5f5" stroke="transparent" points="458,-8 458,-28 540,-28 540,-8 458,-8"/>
<text text-anchor="start" x="459.7" y="-13.4" font-family="Arial" font-size="14.00">Visualization</text>
<polygon fill="#c1c7d0" stroke="transparent" points="542,-8 542,-28 590,-28 590,-8 542,-8"/>
<text text-anchor="start" x="543.83" y="-13.4" font-family="Arial" font-size="14.00" fill="#42526e">TO DO</text>
</a>
</g>
</g>
<!-- EXAMPLE&#45;1&#45;&gt;EXAMPLE&#45;2 -->
<g id="edge5" class="edge" data-name="EXAMPLE-1-&gt;EXAMPLE-2" data-comment="EXAMPLE-1-&gt;EXAMPLE-2">

<path fill="none" stroke="red" d="M331.81,-88.65C357.17,-74.98 392.85,-55.74 420.29,-40.95"/>
<polygon fill="red" stroke="red" points="422.12,-43.94 429.26,-36.11 418.79,-37.78 422.12,-43.94"/>
<text text-anchor="middle" x="413.84" y="-58.2" font-family="Arial" font-size="14.00">blocks</text>
</g>
<!-- EXAMPLE&#45;6 -->
<g id="node4" class="node" pointer-events="visible" data-name="EXAMPLE-6" data-comment="EXAMPLE-6">

<g id="a_node4"><a xlink:href="" xlink:title="Click to open: EXAMPLE-6 - Decoding little endianess fails">
<path fill="none" stroke="black" d="M644,-213.6C644,-213.6 290,-213.6 290,-213.6 284,-213.6 278,-207.6 278,-201.6 278,-201.6 278,-189.6 278,-189.6 278,-183.6 284,-177.6 290,-177.6 290,-177.6 644,-177.6 644,-177.6 650,-177.6 656,-183.6 656,-189.6 656,-189.6 656,-201.6 656,-201.6 656,-207.6 650,-213.6 644,-213.6"/>
<polygon fill="#de350b" stroke="transparent" points="288,-185.6 288,-205.6 322,-205.6 322,-185.6 288,-185.6"/>
<text text-anchor="start" x="289.83" y="-191" font-family="Arial" font-size="14.00" fill="#ffebe6">BUG</text>
<polygon fill="#f5f5f5" stroke="transparent" points="324,-185.6 324,-205.6 406,-205.6 406,-185.6 324,-185.6"/>
<text text-anchor="start" x="325.71" y="-191" font-family="Arial" font-size="14.00">EXAMPLE-6</text>
<polygon fill="#f5f5f5" stroke="transparent" points="408,-185.6 408,-205.6 596,-205.6 596,-185.6 408,-185.6"/>
<text text-anchor="start" x="409.78" y="-191" font-family="Arial" font-size="14.00">Decoding little endianess fails</text>
<polygon fill="#c1c7d0" stroke="transparent" points="598,-185.6 598,-205.6 646,-205.6 646,-185.6 598,-185.6"/>
<text text-anchor="start" x="599.83" y="-191" font-family="Arial" font-size="14.00" fill="#42526e">TO DO</text>
</a>
</g>
</g>
<!-- EXAMPLE&#45;6&#45;&gt;EXAMPLE&#45;1 -->
<g id="edge3" class="edge" data-name="EXAMPLE-6-&gt;EXAMPLE-1" data-comment="EXAMPLE-6-&gt;EXAMPLE-1">

<path fill="none" stroke="red" d="M434.01,-177.45C407.59,-163.72 370.37,-144.37 341.85,-129.55"/>
<polygon fill="red" stroke="red" points="343.41,-126.42 332.93,-124.91 340.18,-132.63 343.41,-126.42"/>
<text text-anchor="middle" x="417.84" y="-147" font-family="Arial" font-size="14.00">blocks</text>
</g>
<!-- EXAMPLE&#45;5 -->
<g id="node5" class="node" pointer-events="visible" data-name="EXAMPLE-5" data-comment="EXAMPLE-5">

<g id="a_node5"><a xlink:href="" xlink:title="Click to open: EXAMPLE-5 - Example Story">
<path fill="none" stroke="black" d="M626,-302.4C626,-302.4 294,-302.4 294,-302.4 288,-302.4 282,-296.4 282,-290.4 282,-290.4 282,-278.4 282,-278.4 282,-272.4 288,-266.4 294,-266.4 294,-266.4 626,-266.4 626,-266.4 632,-266.4 638,-272.4 638,-278.4 638,-278.4 638,-290.4 638,-290.4 638,-296.4 632,-302.4 626,-302.4"/>
<polygon fill="#00875a" stroke="transparent" points="292,-274.4 292,-294.4 344,-294.4 344,-274.4 292,-274.4"/>
<text text-anchor="start" x="293.89" y="-279.8" font-family="Arial" font-size="14.00" fill="#e3fcef">STORY</text>
<polygon fill="#f5f5f5" stroke="transparent" points="346,-274.4 346,-294.4 428,-294.4 428,-274.4 346,-274.4"/>
<text text-anchor="start" x="347.71" y="-279.8" font-family="Arial" font-size="14.00">EXAMPLE-5</text>
<polygon fill="#f5f5f5" stroke="transparent" points="430,-274.4 430,-294.4 525,-294.4 525,-274.4 430,-274.4"/>
<text text-anchor="start" x="431.98" y="-279.8" font-family="Arial" font-size="14.00">Example Story</text>
<polygon fill="#c1c7d0" stroke="transparent" points="527,-274.4 527,-294.4 628,-294.4 628,-274.4 527,-274.4"/>
<text text-anchor="start" x="528.88" y="-279.8" font-family="Arial" font-size="14.00" fill="#42526e">IN PROGRESS</text>
</a>
</g>
</g>
<!-- EXAMPLE&#45;4 -->
<g id="node6" class="node" pointer-events="visible" data-name="EXAMPLE-4" data-comment="EXAMPLE-4">

<g id="a_node6"><a xlink:href="" xlink:title="Click to open: EXAMPLE-4 - CLONE - Visualization">
<path fill="none" stroke="black" d="M778.5,-124.8C778.5,-124.8 467.5,-124.8 467.5,-124.8 461.5,-124.8 455.5,-118.8 455.5,-112.8 455.5,-112.8 455.5,-100.8 455.5,-100.8 455.5,-94.8 461.5,-88.8 467.5,-88.8 467.5,-88.8 778.5,-88.8 778.5,-88.8 784.5,-88.8 790.5,-94.8 790.5,-100.8 790.5,-100.8 790.5,-112.8 790.5,-112.8 790.5,-118.8 784.5,-124.8 778.5,-124.8"/>
<polygon fill="#2684ff" stroke="transparent" points="466,-96.8 466,-116.8 506,-116.8 506,-96.8 466,-96.8"/>
<text text-anchor="start" x="467.72" y="-102.2" font-family="Arial" font-size="14.00" fill="#deebff">TASK</text>
<polygon fill="#f5f5f5" stroke="transparent" points="508,-96.8 508,-116.8 590,-116.8 590,-96.8 508,-96.8"/>
<text text-anchor="start" x="509.71" y="-102.2" font-family="Arial" font-size="14.00">EXAMPLE-4</text>
<polygon fill="#f5f5f5" stroke="transparent" points="592,-96.8 592,-116.8 735,-116.8 735,-96.8 592,-96.8"/>
<text text-anchor="start" x="593.86" y="-102.2" font-family="Arial" font-size="14.00">CLONE - Visualization</text>
<polygon fill="#b2d8b9" stroke="transparent" points="737,-96.8 737,-116.8 781,-116.8 781,-96.8 737,-96.8"/>
<text text-anchor="start" x="738.78" y="-102.2" font-family="Arial" font-size="14.00" fill="#00875a">DONE</text>
</a>
</g>
</g>
<!-- EXAMPLE&#45;4&#45;&gt;EXAMPLE&#45;2 -->
<g id="edge4" class="edge" data-name="EXAMPLE-4-&gt;EXAMPLE-2" data-comment="EXAMPLE-4-&gt;EXAMPLE-2">

<path fill="none" stroke="black" d="M590.99,-88.65C565.48,-74.98 529.57,-55.74 501.96,-40.95"/>
<polygon fill="black" stroke="black" points="503.41,-37.75 492.94,-36.11 500.1,-43.92 503.41,-37.75"/>
<text text-anchor="middle" x="576.23" y="-58.2" font-family="Arial" font-size="14.00">clones</text>
</g>
</g>
</svg>